<svg xmlns="http://www.w3.org/2000/svg" xmlns:xlink="http://www.w3.org/1999/xlink" viewBox="0 0 3876.25 797.07"><defs><style>.cls-1{fill:#6a7b76;}.cls-2{fill:url(#linear-gradient);}.cls-3{fill:url(#Sfumatura_senza_nome_11);}.cls-4{fill:#fff;}</style><linearGradient id="linear-gradient" x1="68.49" y1="410.3" x2="706.72" y2="410.3" gradientUnits="userSpaceOnUse"><stop offset="0" stop-color="#e42931"/><stop offset="0.55" stop-color="#e22931"/><stop offset="0.74" stop-color="#db2731"/><stop offset="0.88" stop-color="#d02532"/><stop offset="1" stop-color="#bf2232"/><stop offset="1" stop-color="#be2232"/></linearGradient><linearGradient id="Sfumatura_senza_nome_11" y1="398.54" x2="775.21" y2="398.54" gradientUnits="userSpaceOnUse"><stop offset="0" stop-color="#e42931"/><stop offset="0.95" stop-color="#c02232"/><stop offset="1" stop-color="#be2232"/></linearGradient></defs><g id="Livello_2" data-name="Livello 2"><g id="Livello_1-2" data-name="Livello 1"><path class="cls-1" d="M1296.56,511.6c0,47.64-28.49,67.72-59.31,67.72-26.62,0-46.7-7.47-61.64-24.75L1002.35,354.23c-2.33-2.81-4.67-4.21-7.47-4.21-4.2,0-7.94,3.27-7.94,8.88V572.78H903.82V323.87c0-53.7,30.82-73.78,73.32-73.78,29.88,0,48.56,7.93,68.18,31.28l154.1,184.47c2.34,3.27,5.14,3.73,7.94,3.73,3.74,0,6.54-2.8,6.54-8.4V257.09h82.66Z"/><path class="cls-1" d="M1674.83,257.09v83.59h-240c-5.13,0-7.47,2.8-7.47,7.94v36h246.11v60.71H1427.32v38.29c0,5.61,2.34,8.41,7.47,8.41h240v80.79H1387.16c-29.42,0-44.37-14.48-44.37-43.9V299.59c0-28.49,15-42.5,44.84-42.5Z"/><path class="cls-1" d="M2062.44,257.09v83.59H1924.21v232.1h-85V340.68H1700.52V257.09Z"/><path class="cls-1" d="M2363.18,334.61l-49,174.19c-13.54,48.57-43,70.52-91.53,70.52-57.44,0-85-30.36-91.53-70.52L2091.86,272a94,94,0,0,1-1.4-14.94h89.19c0,3.27.47,7.94.94,12.14L2213.75,485c.93,7.48,4.67,10.74,11.2,10.74,5.61,0,9.34-2.33,11.21-9.8l48.1-169.52c13.08-45.3,38.29-66.31,89.2-66.31,50.43,0,74.25,21,85.92,64l47.17,171.86c1.87,7.47,5.61,9.8,11.21,9.8,6.54,0,9.81-3.26,11.21-10.74l36-215.75a62.25,62.25,0,0,0,.93-12.14h88.26a99,99,0,0,1-1.4,14.94l-42,237.24c-7.47,41.56-35.49,70.05-92.46,70.05-47.64,0-76.59-22.89-89.2-70.52l-45.3-174.19c-1.87-7-5.14-9.34-10.27-9.34S2365.05,327.61,2363.18,334.61Z"/><path class="cls-1" d="M2831.58,572.78c-56.5,0-98.07-19.61-127-51.37-25.22-27.55-40.63-64.91-40.63-106.48a158.34,158.34,0,0,1,50.9-116.28c28-25.68,65.85-41.56,116.75-41.56h66.32c50.9,0,88.73,15.88,116.75,41.56a158.34,158.34,0,0,1,50.9,116.28c0,41.57-15.41,78.93-40.63,106.48-29,31.76-70.52,51.37-127,51.37Zm0-232.1c-28.48,0-46.23,7.94-59.77,20.55a74.39,74.39,0,0,0-23.35,54.17,73.57,73.57,0,0,0,19.61,50c13.54,14.94,33.63,24.28,63.51,24.28h66.32c29.88,0,50-9.34,63.51-24.28a73.57,73.57,0,0,0,19.61-50,74.39,74.39,0,0,0-23.35-54.17c-13.54-12.61-31.29-20.55-59.77-20.55Z"/><path class="cls-1" d="M3190.7,572.78h-84.52V276.7q0-19.6,21-19.61h224.16c38.76,0,63.51,11.68,80.79,29.89,15.41,16.34,25.22,38.29,25.22,62.11,0,25.22-7.47,49-29.89,65.38,21,12.61,30.36,29.42,30.36,65.38v63a254.62,254.62,0,0,0,1.4,29.89h-85.47a159.59,159.59,0,0,1-1.4-21v-63c0-20.08-9.8-28-34.55-28H3190.7Zm149.44-184c11.68,0,18.68-4.2,23.82-10.27a26.17,26.17,0,0,0,6.07-16.35,25.07,25.07,0,0,0-7-17.74c-4.67-5.14-12.14-8.41-22.88-8.41H3197.71c-4.67,0-7,2.8-7,7v45.76Z"/><path class="cls-1" d="M3584.85,257.09V386.45l143.83-116.28a86.91,86.91,0,0,0,13.08-13.08h118.15c-1.87,2.8-5.61,6.07-8.41,8.41L3677.78,400a5.85,5.85,0,0,0-2.8,5.14c0,2.33.46,3.27,2.8,5.14L3864.11,561.1a144,144,0,0,1,12.14,11.68H3750.17a131.88,131.88,0,0,0-14-13.08L3584.85,433.15V572.78h-85.46V257.09Z"/><path class="cls-2" d="M387.61,91.19c-176.24,0-319.12,142.87-319.12,319.1S211.37,729.41,387.61,729.41,706.72,586.54,706.72,410.29,563.84,91.19,387.61,91.19Z"/><path class="cls-3" d="M87.23,173.06Q75.32,166.55,63,158.88l6.92-7.58Q74.34,154.1,79,157t9.26,5.58q4.59,2.7,9,5.13t8.16,4.37q-1.89-3.67-4.06-7.67t-4.48-8.06c-1.54-2.7-3.1-5.38-4.67-8s-3.11-5.16-4.62-7.57l5.54-6.06c2.56,1.25,5.25,2.53,8,3.86s5.64,2.62,8.49,3.89,5.67,2.5,8.45,3.7,5.42,2.32,7.9,3.36q-2.27-3.62-5.11-7.65t-6-8.34q-3.12-4.29-6.42-8.69t-6.55-8.61l6.66-7.29q8.76,11.59,16.3,22.9t13.69,22.36L132.37,161q-15.32-6-32.44-14.18,4.89,8.28,9.06,16t7.94,15.08l-6.16,6.75Q99.15,179.58,87.23,173.06ZM191,112l-4.85-6.52L165.22,121,156,108.64l17.31-12.9-4.77-6.4-17.31,12.89-7.76-10.42,19.44-14.48-4.85-6.52L130.94,91l31.46,42.24Zm75.39-37.91-3.24-7.62L241.3,75.69,224,34.84l-8.82,3.74,20.59,48.48Zm6.3-30.3a32,32,0,0,1-.79-12,24.9,24.9,0,0,1,3.4-9.69A23.05,23.05,0,0,1,282,15a28.35,28.35,0,0,1,19.06-4.6,22.28,22.28,0,0,1,9.1,3.19,25.66,25.66,0,0,1,7.38,7.09,32,32,0,0,1,4.79,11.08,32.61,32.61,0,0,1,.84,12.07,24.53,24.53,0,0,1-3.29,9.67,22.56,22.56,0,0,1-6.65,7A29,29,0,0,1,294,65.1,22.49,22.49,0,0,1,284.85,62a25.13,25.13,0,0,1-7.38-7.09A32.18,32.18,0,0,1,272.67,43.75Zm9.68-2.34a27.38,27.38,0,0,0,2.88,7.39,17.38,17.38,0,0,0,4.4,5.12,14.14,14.14,0,0,0,5.67,2.58,15.2,15.2,0,0,0,6.68-.21,15,15,0,0,0,5.95-2.84,14,14,0,0,0,3.87-4.89A17.25,17.25,0,0,0,313.38,42a27,27,0,0,0-.81-7.89,27.45,27.45,0,0,0-2.88-7.4,17.34,17.34,0,0,0-4.41-5.11A13.84,13.84,0,0,0,299.62,19,16.15,16.15,0,0,0,287,22.07,13.75,13.75,0,0,0,283.13,27a17.72,17.72,0,0,0-1.58,6.56A26.86,26.86,0,0,0,282.35,41.41Zm80.77,12.83,9.17-.5q5-12.62,9.56-26.33T390.27,0L380,.56Q378.57,6,377,11.62t-3.24,11.14q-1.64,5.49-3.27,10.57t-3.15,9.34q-2.06-4.06-4.23-9T358.7,23.54c-1.47-3.49-2.93-7-4.41-10.67L350,2.22l-10.55.58Q344.72,16,350.73,29.12T363.12,54.24Zm84.25-4.59-25.92-2.84,1.69-15.34,21.45,2.36.87-7.94L424,23.54l1.42-12.92,24.09,2.64.89-8.08L416.79,1.49l-5.74,52.36,35.43,3.88Zm55.5,22.94a47.7,47.7,0,0,1-6.77-3.79l18.41-47.72a44.92,44.92,0,0,1,7.61,1.8Q526,24.14,529,25.29a44.26,44.26,0,0,1,10.71,5.8,24.83,24.83,0,0,1,7,7.92,21.81,21.81,0,0,1,2.63,10A30.92,30.92,0,0,1,547,61a30.68,30.68,0,0,1-6.26,10.33A22.48,22.48,0,0,1,532.07,77a25,25,0,0,1-10.6,1.29,42.77,42.77,0,0,1-12-2.86Q506.53,74.29,502.87,72.59Zm4.74-7q.75.38,2,.9c.84.35,2,.81,3.46,1.38q9,3.47,15.2.61t9.37-11.09q3.23-8.37.63-14.51T526.6,33.24a57.62,57.62,0,0,0-5.76-2Zm51.18,31.24-8.51-5.17q6.91-5.67,12.89-10.39t11.47-8.87q5.49-4.12,10.63-7.77t10.33-7.06l7.81,4.75c-.43,4.12-.93,8.27-1.5,12.42s-1.23,8.5-2,13S598.31,97,597.38,102s-2,10.42-3.25,16.25l-8.84-5.37q.71-3.21,1.31-6.41T588,100l-19-11.55q-2.56,2.17-5.11,4.23Zm16.27-13.68,14.81,9c1-4.7,1.8-9.1,2.52-13.23s1.29-7.58,1.68-10.37q-3.6,2.55-8.5,6.31T575.06,83.14Zm45.46,57,28.6-33.94,12.38,10.43,5.33-6.34L634.69,83.22l-5.34,6.34L641.73,100l-28.59,33.94Zm34.11,10.12q7.14-2.7,13.62-5t12.48-4.19q6-1.91,12-3.6l6,6.89q-2.49,5.7-5.19,11.39t-5.84,11.8q-3.13,6.1-6.75,12.84t-8,14.51l-6.8-7.79c1.1-1.9,2.16-3.81,3.19-5.71s2.11-3.83,3.25-5.76l-14.63-16.77q-3.1,1.29-6.15,2.48l-6,2.39-6.54-7.51Q647.5,153,654.63,150.27Zm10.76,5.4,11.39,13.06q3.5-6.28,6.41-11.85t4.74-9.37q-4.18,1.34-10,3.44T665.39,155.67Zm79.36,102.92a387.06,387.06,0,0,0-28.49-54.71,5.23,5.23,0,0,0-4.44-2.47h-1.18a5.25,5.25,0,0,0-4.45,8.05,376.33,376.33,0,1,1-637.17,0,5.25,5.25,0,0,0-4.44-8.05H63.4A5.24,5.24,0,0,0,59,203.88a387.56,387.56,0,1,0,685.8,54.71Z"/><path class="cls-4" d="M399.78,400.45c30.22-10.87,48.64-36.94,48.64-69.79,0-50.51-44.46-81.88-116-81.88H192.25a8.58,8.58,0,0,0-5.76,2.25h-.62v.62a8.58,8.58,0,0,0-2.25,5.76V563.19a8.58,8.58,0,0,0,2.25,5.76v.62h.62a8.53,8.53,0,0,0,5.76,2.25H337.4c75.5,0,122.39-34.69,122.39-90.53C459.79,441.08,437,410.79,399.78,400.45ZM260,316.11a4.13,4.13,0,0,1,4.13-4.13h64.61c26.33,0,41.43,11.62,41.43,31.88,0,.24-.06.45-.07.68s.07.45.07.68c0,20.26-15.1,31.88-41.43,31.88H264.15A4.12,4.12,0,0,1,260,373Zm121.1,157.44c0,22-19.57,35.06-52.36,35.06H264.15a4.12,4.12,0,0,1-4.13-4.12V441.25a4.13,4.13,0,0,1,4.13-4.13h64.61c32.79,0,52.36,13.11,52.36,35.06,0,.23,0,.46-.05.69S381.12,473.32,381.12,473.55Z"/><path class="cls-4" d="M531.61,247.11a60,60,0,0,0-38,106.37v209.8a8.57,8.57,0,0,0,2.23,5.71v.6h.62a8.44,8.44,0,0,0,5.7,2.24H561a8.47,8.47,0,0,0,5.71-2.24h.6V569a8.48,8.48,0,0,0,2.24-5.71V353.48a60,60,0,0,0-38-106.37Zm31.72,80.25a37.62,37.62,0,1,1,6-20.27A37.64,37.64,0,0,1,563.33,327.36Z"/><path class="cls-4" d="M399.78,402.42c30.22-10.87,48.64-36.94,48.64-69.8,0-50.51-44.45-81.88-116-81.88H192.25a8.58,8.58,0,0,0-5.76,2.25h-.62v.63a8.56,8.56,0,0,0-2.25,5.76V565.16a8.58,8.58,0,0,0,2.25,5.76v.62h.62a8.53,8.53,0,0,0,5.76,2.25H337.4c75.5,0,122.4-34.69,122.4-90.54C459.8,443.05,437,412.75,399.78,402.42ZM260,318.08a4.14,4.14,0,0,1,4.13-4.14h64.61c26.33,0,41.43,11.63,41.43,31.88,0,.24-.06.45-.07.69s.07.45.07.68c0,20.26-15.1,31.88-41.43,31.88H264.15a4.13,4.13,0,0,1-4.13-4.13Zm121.1,157.43c0,22-19.57,35.07-52.36,35.07H264.15a4.13,4.13,0,0,1-4.13-4.13V443.22a4.14,4.14,0,0,1,4.13-4.14h64.61c32.79,0,52.36,13.12,52.36,35.07,0,.23,0,.46-.05.69S381.12,475.28,381.12,475.51Z"/><path class="cls-4" d="M531.61,249.07a60,60,0,0,0-38,106.38V565.24a8.55,8.55,0,0,0,2.23,5.71v.61h.62a8.43,8.43,0,0,0,5.7,2.23H561a8.46,8.46,0,0,0,5.71-2.23h.6V571a8.47,8.47,0,0,0,2.24-5.71V355.45a60,60,0,0,0-38-106.38Zm31.72,80.25a37.62,37.62,0,1,1,6-20.26A37.63,37.63,0,0,1,563.33,329.32Z"/></g></g></svg>